<svg width="119" height="119" viewBox="0 0 119 119" fill="none" xmlns="http://www.w3.org/2000/svg">
<g clip-path="url(#clip0_3_365)">
<path d="M104.125 73.0631L100.158 69.7841C97.7529 67.7836 96.4299 64.7641 96.588 61.6362C96.588 60.9406 96.588 60.1954 96.588 59.4998C96.588 58.8043 96.588 58.0591 96.588 57.3635C96.4299 54.2356 97.7529 51.216 100.158 49.2156L104.125 45.9366C106.007 44.4073 106.51 41.7389 105.315 39.6269L99.563 29.6905C98.3438 27.6159 95.8157 26.7156 93.5634 27.5541L88.605 29.3427C85.6789 30.4385 82.4086 30.0887 79.7792 28.3987C78.6136 27.5919 77.3868 26.8776 76.11 26.2624C73.32 24.8287 71.371 22.1573 70.8542 19.0585L70.0113 14.0902C69.6184 11.6605 67.5093 9.88524 65.0529 9.91692H53.6488C51.1925 9.88524 49.0833 11.6605 48.6904 14.0902L47.8475 19.0585C47.3739 22.1182 45.504 24.7818 42.79 26.2624C41.5133 26.8776 40.2865 27.5919 39.1209 28.3987C36.4915 30.0887 33.2212 30.4385 30.295 29.3427L25.3367 27.5541C23.1131 26.7704 20.6463 27.6636 19.4363 29.6905L13.6846 39.6269C12.4893 41.7389 12.9925 44.4073 14.8746 45.9366L18.8413 49.2156C21.2463 51.216 22.5693 54.2356 22.4113 57.3635C22.4113 58.0591 22.4113 58.8043 22.4113 59.4998C22.4113 60.1954 22.4113 60.9406 22.4113 61.6362C22.5693 64.7641 21.2463 67.7836 18.8413 69.7841L14.8746 73.0631C12.9925 74.5924 12.4893 77.2607 13.6846 79.3727L19.4363 89.3092C20.6554 91.3838 23.1836 92.284 25.4359 91.4455L30.3942 89.657C33.3203 88.5612 36.5907 88.911 39.22 90.6009C40.3856 91.4078 41.6124 92.1221 42.8892 92.7373C45.6793 94.171 47.6283 96.8424 48.145 99.9412L48.9879 104.909C49.3808 107.339 51.49 109.114 53.9463 109.083H65.3505C67.8068 109.114 69.9159 107.339 70.3088 104.909L71.1517 99.9412C71.6685 96.8424 73.6175 94.171 76.4075 92.7373C77.6843 92.1221 78.9111 91.4078 80.0767 90.6009C82.7061 88.911 85.9764 88.5612 88.9025 89.657L93.8609 91.4455C96.0255 92.124 98.3736 91.2442 99.563 89.3092L105.315 79.3727C106.51 77.2607 106.007 74.5924 104.125 73.0631ZM59.4996 74.4045C51.2844 74.4045 44.6246 67.7315 44.6246 59.4998C44.6246 51.2682 51.2844 44.5951 59.4996 44.5951C67.7149 44.5951 74.3746 51.2682 74.3746 59.4998C74.3746 63.4528 72.8074 67.2439 70.0178 70.039C67.2282 72.8342 63.4447 74.4045 59.4996 74.4045Z" fill="#598B99"/>
</g>
<defs>
<clipPath id="clip0_3_365">
<rect width="119" height="119" fill="white"/>
</clipPath>
</defs>
</svg>
