<svg width="1080" height="205" viewBox="0 0 1080 205" fill="none" xmlns="http://www.w3.org/2000/svg">
<g filter="url(#filter0_d_3_87)">
<mask id="path-1-inside-1_3_87" fill="white">
<path fill-rule="evenodd" clip-rule="evenodd" d="M650.212 52.6033C665.84 24.624 679.594 0 710 0H1080V205H0V0H370C400.734 0 414.514 25.1259 430.048 53.4534C450.121 90.0543 473.124 132 539.418 132C606.495 130.87 629.932 88.9117 650.212 52.6033Z"/>
</mask>
<path fill-rule="evenodd" clip-rule="evenodd" d="M650.212 52.6033C665.84 24.624 679.594 0 710 0H1080V205H0V0H370C400.734 0 414.514 25.1259 430.048 53.4534C450.121 90.0543 473.124 132 539.418 132C606.495 130.87 629.932 88.9117 650.212 52.6033Z" fill="#8BC0CF"/>
<path d="M650.212 52.6033L649.339 52.1156L649.339 52.1156L650.212 52.6033ZM1080 0H1081V-1H1080V0ZM1080 205V206H1081V205H1080ZM0 205H-1V206H0V205ZM0 0V-1H-1V0H0ZM430.048 53.4534L429.172 53.9343L429.172 53.9343L430.048 53.4534ZM539.418 132V133H539.426L539.435 133L539.418 132ZM710 -1C694.473 -1 683.184 5.30825 673.84 15.1198C664.543 24.8831 657.136 38.1569 649.339 52.1156L651.085 53.0909C658.916 39.0704 666.201 26.0426 675.289 16.499C684.331 7.00375 695.122 1 710 1V-1ZM710 1H1080V-1H710V1ZM1079 0V205H1081V0H1079ZM1080 204H0V206H1080V204ZM1 205V0H-1V205H1ZM0 1H370V-1H0V1ZM430.925 52.9726C423.175 38.8399 415.786 25.3526 406.453 15.4192C397.074 5.43691 385.695 -1 370 -1V1C385.039 1 395.917 7.12604 404.995 16.7886C414.119 26.5 421.387 39.7394 429.172 53.9343L430.925 52.9726ZM539.418 131C506.513 131 484.431 120.602 468.073 105.713C451.67 90.7815 440.974 71.2969 430.925 52.9726L429.172 53.9343C439.195 72.2109 450.037 91.9995 466.727 107.192C483.462 122.425 506.028 133 539.418 133V131ZM649.339 52.1156C639.187 70.292 628.331 89.7105 611.693 104.752C595.098 119.755 572.704 130.439 539.401 131L539.435 133C573.21 132.431 596.072 121.571 613.034 106.236C629.955 90.9381 640.957 71.223 651.085 53.0909L649.339 52.1156Z" fill="black" mask="url(#path-1-inside-1_3_87)"/>
</g>
<defs>
<filter id="filter0_d_3_87" x="-4" y="0" width="1088" height="213" filterUnits="userSpaceOnUse" color-interpolation-filters="sRGB">
<feFlood flood-opacity="0" result="BackgroundImageFix"/>
<feColorMatrix in="SourceAlpha" type="matrix" values="0 0 0 0 0 0 0 0 0 0 0 0 0 0 0 0 0 0 127 0" result="hardAlpha"/>
<feOffset dy="4"/>
<feGaussianBlur stdDeviation="2"/>
<feComposite in2="hardAlpha" operator="out"/>
<feColorMatrix type="matrix" values="0 0 0 0 0 0 0 0 0 0 0 0 0 0 0 0 0 0 0.25 0"/>
<feBlend mode="normal" in2="BackgroundImageFix" result="effect1_dropShadow_3_87"/>
<feBlend mode="normal" in="SourceGraphic" in2="effect1_dropShadow_3_87" result="shape"/>
</filter>
</defs>
</svg>
